# This file uses centimeters as units for non-parametric coordinates.

mtllib newwingright.mtl
g default
v -0.865141 3.413109 2.203242
v -0.421937 1.646906 2.227838
v -0.865141 3.413109 3.329361
v -0.451583 1.765045 3.368178
v -0.641182 2.520617 1.070683
v -0.271038 1.045557 1.099101
v -0.492805 1.929313 0.374242
v -0.146010 0.547309 0.374242
v -0.903705 3.566790 2.598491
v -0.460502 1.800586 2.623087
v -0.631339 2.481388 3.368178
v -0.669903 2.635068 2.623087
v -0.631339 2.481388 2.227838
v -0.480439 1.880040 1.099101
v -0.372047 1.448088 0.374242
v -0.782470 3.083662 3.940227
v -0.548669 2.151941 4.011528
v -0.355124 1.380642 4.005962
v -0.311954 1.208608 2.518510
v -0.313936 1.216509 2.332418
v -0.795342 3.134958 1.661668
v -0.575207 2.257699 1.681074
v -0.365807 1.423216 1.681074
v -0.868305 2.817261 4.257819
v -1.014687 3.400602 3.871125
v -0.907249 2.972457 3.940227
v -0.757936 2.377427 4.386285
v -0.618334 1.821105 4.440428
v -0.673448 2.040736 4.011528
v -0.479901 1.269438 4.005962
v -0.458201 1.182960 4.329691
v -0.617582 1.818110 0.374242
v -0.693055 2.118874 0.374242
v -0.547505 1.538846 -0.092158
v -0.446474 1.136228 -0.253629
v -0.270788 0.436103 0.374242
v -0.496826 1.336883 0.374242
v -0.346118 0.736299 -0.374241
v -0.270788 0.436103 -0.374241
v -1.028483 3.455585 2.598491
v -1.115734 3.803287 2.705624
v -1.077170 3.649606 2.081889
v -0.989920 3.301906 2.203242
v -0.585280 1.689381 2.623087
v -0.794682 2.523863 2.623087
v -0.756118 2.370183 2.227838
v -0.546716 1.535700 2.227838
v -1.007372 3.371454 1.661668
v -0.920121 3.023754 1.661668
v -0.765962 2.409412 1.070683
v -0.853212 2.757114 1.070683
v -1.077170 3.649606 3.329361
v -0.989920 3.301906 3.329361
v -0.438715 1.105306 2.332418
v -0.436732 1.097402 2.518510
v -0.418432 0.975611 4.050807
v -0.391736 0.970610 4.240120
v -0.494203 2.612469 4.386285
v -0.643517 3.207500 3.940227
v -0.750954 3.635645 3.871125
v -0.604571 3.052304 4.257819
v -0.194468 1.418002 4.329691
v -0.216168 1.504480 4.005962
v -0.409714 2.275779 4.011528
v -0.354601 2.056147 4.440428
v -0.082385 0.971341 -0.374241
v -0.233093 1.571927 0.374242
v -0.007055 0.671146 0.374242
v -0.007055 0.671146 -0.374241
v -0.429322 2.353916 0.374242
v -0.353849 2.053151 0.374242
v -0.182741 1.371269 -0.253629
v -0.283772 1.773887 -0.092158
v -0.492384 2.605226 2.227838
v -0.530949 2.758907 2.623087
v -0.321548 1.924424 2.623087
v -0.282983 1.770743 2.227838
v -0.852000 4.038328 2.705624
v -0.764750 3.690627 2.598491
v -0.726186 3.536948 2.203242
v -0.813437 3.884649 2.081889
v -0.656388 3.258796 1.661668
v -0.743638 3.606497 1.661668
v -0.226851 1.547054 1.681074
v -0.436253 2.381536 1.681074
v -0.589478 2.992156 1.070683
v -0.502228 2.644454 1.070683
v -0.341484 2.003877 1.099101
v -0.132083 1.169394 1.099101
v -0.726186 3.536948 3.329361
v -0.813437 3.884649 3.329361
v -0.492384 2.605226 3.368178
v -0.312628 1.888884 3.368178
v -0.172998 1.332444 2.518510
v -0.174981 1.340347 2.332418
v -0.134026 1.225996 4.229856
v -0.160721 1.230997 4.040544
v -0.131866 -0.117521 0.374242
v -0.131866 -0.117521 -0.374241
v 0.131868 0.117522 -0.374241
v 0.131868 0.117522 0.374242
vt 0.375000 0.250000
vt 0.400000 0.250000
vt 0.400000 0.300000
vt 0.375000 0.300000
vt 0.375000 0.950000
vt 0.400000 0.950000
vt 0.400000 1.000000
vt 0.375000 1.000000
vt 0.375000 0.500000
vt 0.375000 0.750000
vt 0.375000 0.870000
vt 0.375000 0.380000
vt 0.400000 0.750000
vt 0.400000 0.870000
vt 0.400000 0.380000
vt 0.400000 0.500000
vt 0.587500 0.300000
vt 0.587500 0.250000
vt 0.625000 0.250000
vt 0.625000 0.300000
vt 0.587500 0.500000
vt 0.587500 0.380000
vt 0.625000 0.380000
vt 0.625000 0.500000
vt 0.625000 0.870000
vt 0.587500 0.870000
vt 0.587500 0.750000
vt 0.625000 0.750000
vt 0.587500 1.000000
vt 0.587500 0.950000
vt 0.625000 0.950000
vt 0.625000 1.000000
vt 0.468750 0.300000
vt 0.468750 0.250000
vt 0.500000 0.250000
vt 0.500000 0.300000
vt 0.468750 0.500000
vt 0.468750 0.380000
vt 0.500000 0.380000
vt 0.500000 0.500000
vt 0.500000 0.870000
vt 0.468750 0.870000
vt 0.468750 0.750000
vt 0.500000 0.750000
vt 0.468750 1.000000
vt 0.468750 0.950000
vt 0.500000 0.950000
vt 0.500000 1.000000
vt 0.531250 0.250000
vt 0.531250 0.300000
vt 0.531250 0.950000
vt 0.531250 1.000000
vt 0.531250 0.750000
vt 0.531250 0.870000
vt 0.500000 0.500000
vt 0.500000 0.380000
vt 0.531250 0.380000
vt 0.531250 0.500000
vt 0.562500 0.300000
vt 0.562500 0.250000
vt 0.562500 1.000000
vt 0.562500 0.950000
vt 0.562500 0.870000
vt 0.562500 0.750000
vt 0.562500 0.500000
vt 0.562500 0.380000
vt 0.587500 0.380000
vt 0.587500 0.500000
vt 0.437500 0.300000
vt 0.437500 0.250000
vt 0.437500 1.000000
vt 0.437500 0.950000
vt 0.437500 0.870000
vt 0.437500 0.750000
vt 0.437500 0.500000
vt 0.437500 0.380000
vt 0.468750 0.380000
vt 0.468750 0.500000
vt 0.437500 0.300000
vt 0.468750 0.300000
vt 0.531250 0.300000
vt 0.500000 0.300000
vt 0.562500 0.300000
vt 0.587500 0.300000
vt 0.400000 0.380000
vt 0.400000 0.300000
vt 0.400000 0.500000
vt 0.500000 0.500000
vt 0.468750 0.500000
vt 0.500000 0.500000
vt 0.500000 0.750000
vt 0.468750 0.750000
vt 0.400000 0.500000
vt 0.375000 0.500000
vt 0.375000 0.750000
vt 0.400000 0.750000
vt 0.468750 0.500000
vt 0.625000 0.500000
vt 0.625000 0.750000
vt 0.587500 0.750000
vt 0.587500 0.500000
vn -0.969929 -0.243390 0.000001
vn -0.969929 -0.243390 0.000001
vn -0.969929 -0.243390 0.000001
vn -0.969929 -0.243390 0.000001
vn 0.969931 0.243381 -0.000003
vn 0.969931 0.243381 -0.000003
vn 0.969931 0.243381 -0.000003
vn 0.969931 0.243381 -0.000003
vn -0.202625 0.227359 0.952497
vn -0.202625 0.227359 0.952497
vn -0.202625 0.227359 0.952497
vn -0.202625 0.227359 0.952497
vn 0.124166 -0.139324 0.982432
vn 0.124166 -0.139324 0.982432
vn 0.124166 -0.139324 0.982432
vn 0.124166 -0.139324 0.982432
vn 0.969929 0.243388 0.000001
vn 0.969929 0.243388 0.000001
vn 0.969929 0.243388 0.000001
vn 0.969929 0.243388 0.000001
vn -0.969929 -0.243389 0.000001
vn -0.969929 -0.243389 0.000001
vn -0.969929 -0.243389 0.000001
vn -0.969929 -0.243389 0.000001
vn -0.969928 -0.243393 0.000002
vn -0.969928 -0.243393 0.000002
vn -0.969928 -0.243393 0.000002
vn -0.969928 -0.243393 0.000002
vn -0.969928 -0.243390 -0.000000
vn -0.969929 -0.243390 -0.000000
vn -0.969929 -0.243390 -0.000000
vn -0.969928 -0.243390 -0.000000
vn 0.969929 0.243388 0.000000
vn 0.969929 0.243388 0.000000
vn 0.969929 0.243388 0.000000
vn 0.969929 0.243388 0.000000
vn 0.969928 0.243390 -0.000002
vn 0.969928 0.243390 -0.000002
vn 0.969928 0.243391 -0.000002
vn 0.969928 0.243390 -0.000002
vn -0.969930 -0.243386 0.000001
vn -0.969930 -0.243386 0.000001
vn -0.969930 -0.243386 0.000001
vn -0.969930 -0.243386 0.000001
vn -0.969929 -0.243389 -0.000001
vn -0.969929 -0.243389 -0.000001
vn -0.969929 -0.243389 -0.000001
vn -0.969929 -0.243389 -0.000001
vn 0.969929 0.243389 0.000002
vn 0.969929 0.243389 0.000002
vn 0.969929 0.243389 0.000002
vn 0.969929 0.243389 0.000002
vn 0.969929 0.243388 0.000001
vn 0.969929 0.243388 0.000001
vn 0.969929 0.243388 0.000001
vn 0.969929 0.243388 0.000001
vn -0.969927 -0.243395 0.000000
vn -0.969927 -0.243395 0.000000
vn -0.969927 -0.243395 0.000000
vn -0.969927 -0.243395 0.000000
vn 0.969929 0.243387 0.000000
vn 0.969929 0.243387 0.000000
vn 0.969929 0.243387 0.000000
vn 0.969929 0.243387 0.000000
vn 0.969929 0.243390 -0.000000
vn 0.969929 0.243390 -0.000000
vn 0.969929 0.243390 -0.000000
vn 0.969929 0.243390 -0.000000
vn -0.969929 -0.243388 0.000000
vn -0.969929 -0.243388 0.000000
vn -0.969929 -0.243388 0.000000
vn -0.969929 -0.243388 0.000000
vn -0.969929 -0.243389 0.000000
vn -0.969929 -0.243389 0.000000
vn -0.969929 -0.243390 0.000000
vn -0.969929 -0.243390 0.000000
vn 0.969929 0.243389 -0.000002
vn 0.969929 0.243389 -0.000002
vn 0.969929 0.243389 -0.000002
vn 0.969929 0.243389 -0.000002
vn 0.969929 0.243389 -0.000001
vn 0.969929 0.243389 -0.000001
vn 0.969929 0.243389 -0.000001
vn 0.969929 0.243389 -0.000001
vn -0.969929 -0.243390 0.000000
vn -0.969929 -0.243390 0.000000
vn -0.969929 -0.243390 0.000000
vn -0.969929 -0.243390 0.000000
vn -0.969929 -0.243387 -0.000000
vn -0.969929 -0.243387 -0.000000
vn -0.969929 -0.243387 -0.000000
vn -0.969929 -0.243387 -0.000000
vn 0.969928 0.243390 -0.000001
vn 0.969929 0.243390 -0.000001
vn 0.969928 0.243390 -0.000001
vn 0.969928 0.243390 -0.000001
vn 0.969929 0.243389 -0.000001
vn 0.969929 0.243389 -0.000001
vn 0.969929 0.243389 -0.000001
vn 0.969929 0.243389 -0.000001
vn -0.969929 -0.243389 0.000000
vn -0.969929 -0.243389 0.000000
vn -0.969929 -0.243389 0.000000
vn -0.969929 -0.243389 0.000000
vn -0.070484 0.079088 0.994373
vn -0.070484 0.079088 0.994373
vn -0.070484 0.079088 0.994373
vn -0.070484 0.079088 0.994373
vn -0.969928 -0.243390 -0.000000
vn -0.969928 -0.243390 -0.000000
vn -0.969928 -0.243390 -0.000000
vn -0.969928 -0.243390 -0.000000
vn -0.969929 -0.243390 -0.000000
vn -0.969928 -0.243390 -0.000000
vn -0.969928 -0.243390 -0.000000
vn -0.969928 -0.243390 -0.000000
vn -0.969929 -0.243389 0.000000
vn -0.969929 -0.243389 0.000000
vn -0.969929 -0.243389 0.000000
vn -0.969929 -0.243389 0.000000
vn -0.969929 -0.243390 -0.000001
vn -0.969929 -0.243390 -0.000001
vn -0.969929 -0.243390 -0.000001
vn -0.969929 -0.243390 -0.000001
vn -0.969929 -0.243390 0.000001
vn -0.969928 -0.243390 0.000001
vn -0.969928 -0.243390 0.000001
vn -0.969929 -0.243390 0.000001
vn -0.969929 -0.243387 -0.000002
vn -0.969929 -0.243387 -0.000002
vn -0.969929 -0.243387 -0.000002
vn -0.969929 -0.243387 -0.000002
vn 0.969928 0.243390 -0.000000
vn 0.969928 0.243390 -0.000000
vn 0.969928 0.243390 -0.000000
vn 0.969928 0.243390 -0.000000
vn 0.969929 0.243389 -0.000001
vn 0.969929 0.243389 -0.000001
vn 0.969929 0.243389 -0.000001
vn 0.969929 0.243389 -0.000001
vn 0.969929 0.243389 -0.000001
vn 0.969929 0.243389 -0.000001
vn 0.969929 0.243389 -0.000001
vn 0.969929 0.243389 -0.000001
vn 0.969929 0.243390 0.000002
vn 0.969929 0.243390 0.000002
vn 0.969929 0.243390 0.000002
vn 0.969929 0.243390 0.000002
vn 0.969929 0.243389 -0.000001
vn 0.969929 0.243389 -0.000001
vn 0.969929 0.243389 -0.000001
vn 0.969929 0.243389 -0.000001
vn 0.969928 0.243392 0.000003
vn 0.969928 0.243392 0.000003
vn 0.969928 0.243392 0.000003
vn 0.969928 0.243392 0.000003
vn -0.969928 -0.243393 -0.000001
vn -0.969928 -0.243393 -0.000001
vn -0.969928 -0.243393 -0.000001
vn -0.969928 -0.243393 -0.000001
vn -0.969929 -0.243387 0.000002
vn -0.969929 -0.243387 0.000002
vn -0.969929 -0.243387 0.000002
vn -0.969929 -0.243387 0.000002
vn -0.969929 -0.243388 -0.000000
vn -0.969929 -0.243388 -0.000000
vn -0.969929 -0.243388 -0.000000
vn -0.969929 -0.243388 -0.000000
vn 0.969929 0.243388 0.000001
vn 0.969929 0.243388 0.000001
vn 0.969929 0.243388 0.000001
vn 0.969929 0.243388 0.000001
vn 0.969928 0.243390 0.000001
vn 0.969928 0.243390 0.000001
vn 0.969928 0.243390 0.000001
vn 0.969928 0.243390 0.000001
vn 0.969929 0.243388 0.000002
vn 0.969929 0.243388 0.000002
vn 0.969929 0.243388 0.000002
vn 0.969929 0.243388 0.000002
vn -0.969928 -0.243390 -0.000002
vn -0.969929 -0.243390 -0.000002
vn -0.969928 -0.243390 -0.000002
vn -0.969928 -0.243390 -0.000002
vn 0.171026 -0.191902 -0.966397
vn 0.171026 -0.191902 -0.966397
vn 0.171026 -0.191902 -0.966397
vn 0.171026 -0.191902 -0.966397
vn 0.969929 0.243388 0.000002
vn 0.969929 0.243388 0.000002
vn 0.969929 0.243388 0.000002
vn 0.969929 0.243388 0.000002
vn -0.967452 -0.248665 0.046923
vn -0.967452 -0.248665 0.046923
vn -0.967452 -0.248665 0.046923
vn -0.967452 -0.248665 0.046923
vn 0.967730 0.247538 -0.047147
vn 0.967730 0.247538 -0.047147
vn 0.967730 0.247538 -0.047147
vn 0.967730 0.247538 -0.047147
vn -0.969928 -0.243392 0.000001
vn -0.969928 -0.243392 0.000001
vn -0.969928 -0.243392 0.000001
vn -0.969928 -0.243392 0.000001
vn -0.969929 -0.243389 -0.000001
vn -0.969929 -0.243389 -0.000001
vn -0.969929 -0.243389 -0.000001
vn -0.969929 -0.243389 -0.000001
vn -0.969929 -0.243390 -0.000000
vn -0.969929 -0.243390 -0.000000
vn -0.969929 -0.243390 -0.000000
vn -0.969928 -0.243390 -0.000000
vn 0.969929 0.243389 0.000001
vn 0.969929 0.243389 0.000001
vn 0.969929 0.243389 0.000001
vn 0.969929 0.243389 0.000001
vn 0.969928 0.243390 0.000001
vn 0.969928 0.243390 0.000001
vn 0.969928 0.243390 0.000001
vn 0.969928 0.243390 0.000001
vn 0.969929 0.243387 0.000002
vn 0.969929 0.243387 0.000002
vn 0.969929 0.243387 0.000002
vn 0.969929 0.243387 0.000002
vn -0.390763 0.438462 0.809355
vn -0.390763 0.438462 0.809355
vn -0.390763 0.438462 0.809355
vn -0.390763 0.438462 0.809355
vn -0.005257 0.005897 -0.999969
vn -0.005257 0.005897 -0.999969
vn -0.005257 0.005897 -0.999969
vn -0.005257 0.005897 -0.999969
vn -0.439601 0.493265 -0.750627
vn -0.439601 0.493265 -0.750627
vn -0.439601 0.493265 -0.750627
vn -0.439601 0.493265 -0.750627
vn -0.000000 0.000000 1.000000
vn -0.000000 0.000000 1.000000
vn -0.000000 0.000000 1.000000
vn -0.000000 0.000000 1.000000
vn -0.000001 0.000000 -1.000000
vn -0.000001 0.000000 -1.000000
vn -0.000001 0.000000 -1.000000
vn -0.000001 0.000000 -1.000000
vn -0.649095 0.728327 -0.219580
vn -0.649095 0.728327 -0.219580
vn -0.649095 0.728327 -0.219580
vn -0.649095 0.728327 -0.219580
vn -0.000002 0.000000 1.000000
vn -0.000002 0.000000 1.000000
vn -0.000002 0.000000 1.000000
vn -0.000002 0.000000 1.000000
vn -0.000002 0.000000 -1.000000
vn -0.000002 0.000000 -1.000000
vn -0.000002 0.000000 -1.000000
vn -0.000002 0.000000 -1.000000
vn -0.569343 0.638841 -0.517427
vn -0.569343 0.638841 -0.517427
vn -0.569343 0.638841 -0.517427
vn -0.569343 0.638841 -0.517427
vn 0.602330 -0.675860 0.424749
vn 0.602330 -0.675860 0.424749
vn 0.602330 -0.675860 0.424749
vn 0.602330 -0.675860 0.424749
vn -0.510160 0.572435 -0.641916
vn -0.510160 0.572435 -0.641916
vn -0.510160 0.572435 -0.641916
vn -0.510160 0.572435 -0.641916
vn 0.525736 -0.589912 0.612867
vn 0.525736 -0.589912 0.612867
vn 0.525736 -0.589912 0.612867
vn 0.525736 -0.589912 0.612867
vn -0.649095 0.728327 0.219579
vn -0.649095 0.728327 0.219579
vn -0.649095 0.728327 0.219579
vn -0.649095 0.728327 0.219579
vn 0.653385 -0.733148 -0.188634
vn 0.653385 -0.733148 -0.188634
vn 0.653385 -0.733148 -0.188634
vn 0.653385 -0.733148 -0.188634
vn 0.055542 -0.062322 -0.996509
vn 0.055542 -0.062322 -0.996509
vn 0.055542 -0.062322 -0.996509
vn 0.055542 -0.062322 -0.996509
vn -0.019217 0.021565 0.999583
vn -0.019217 0.021565 0.999583
vn -0.019217 0.021565 0.999583
vn -0.019217 0.021565 0.999583
vn 0.019220 -0.021565 -0.999583
vn 0.019220 -0.021565 -0.999583
vn 0.019220 -0.021565 -0.999583
vn 0.019220 -0.021565 -0.999583
vn -0.000003 0.000000 1.000000
vn -0.000003 0.000000 1.000000
vn -0.000003 0.000000 1.000000
vn -0.000003 0.000000 1.000000
vn -0.613456 0.688337 0.387123
vn -0.613456 0.688337 0.387123
vn -0.613456 0.688337 0.387123
vn -0.613456 0.688337 0.387123
vn 0.596829 -0.669688 -0.441943
vn 0.596829 -0.669688 -0.441943
vn 0.596829 -0.669688 -0.441943
vn 0.596829 -0.669688 -0.441943
vn 0.171028 -0.191904 -0.966396
vn 0.171028 -0.191904 -0.966397
vn 0.171028 -0.191904 -0.966397
vn 0.171028 -0.191904 -0.966396
vn 0.664833 -0.745986 -0.038763
vn 0.664833 -0.745986 -0.038763
vn 0.664833 -0.745986 -0.038763
vn 0.664833 -0.745986 -0.038763
vn 0.126324 -0.141744 0.981810
vn 0.126324 -0.141744 0.981810
vn 0.126324 -0.141744 0.981810
vn 0.126324 -0.141744 0.981810
vn 0.092736 -0.119287 -0.988519
vn 0.092736 -0.119287 -0.988520
vn 0.092736 -0.119287 -0.988519
vn 0.092736 -0.119287 -0.988519
vn 0.092736 -0.119287 -0.988519
vn -0.482460 0.541354 -0.688599
vn -0.482460 0.541354 -0.688599
vn -0.482460 0.541354 -0.688599
vn -0.482460 0.541354 -0.688599
vn 0.482461 -0.541350 0.688601
vn 0.482461 -0.541350 0.688601
vn 0.482461 -0.541350 0.688601
vn 0.482461 -0.541350 0.688601
vn 0.665333 -0.746547 0.000000
vn 0.665333 -0.746547 0.000000
vn 0.665333 -0.746547 0.000000
vn 0.665333 -0.746547 0.000000
vn -0.267457 0.300108 -0.915643
vn -0.267457 0.300108 -0.915643
vn -0.267457 0.300108 -0.915643
vn -0.267457 0.300108 -0.915643
vn 0.623226 -0.699311 0.350077
vn 0.623226 -0.699311 0.350077
vn 0.623226 -0.699310 0.350077
vn 0.623226 -0.699311 0.350077
vn 0.563458 -0.632242 0.531776
vn 0.563458 -0.632242 0.531776
vn 0.563458 -0.632242 0.531776
vn 0.563458 -0.632242 0.531776
vn 0.664707 -0.745835 -0.043534
vn 0.664707 -0.745835 -0.043534
vn 0.664707 -0.745835 -0.043534
vn 0.664707 -0.745835 -0.043534
vn -0.208579 0.234041 -0.949589
vn -0.208579 0.234041 -0.949589
vn -0.208579 0.234041 -0.949589
vn -0.208579 0.234041 -0.949589
vn 0.582830 -0.653978 -0.482309
vn 0.582830 -0.653978 -0.482309
vn 0.582830 -0.653978 -0.482309
vn 0.582830 -0.653978 -0.482309
vn 0.126325 -0.141743 0.981810
vn 0.126325 -0.141743 0.981810
vn 0.126325 -0.141743 0.981810
vn 0.126325 -0.141743 0.981810
vn 0.664825 -0.745993 -0.038760
vn 0.664825 -0.745993 -0.038760
vn 0.664825 -0.745993 -0.038760
vn 0.664825 -0.745993 -0.038760
vn 0.317368 -0.318746 0.893128
vn 0.317368 -0.318746 0.893128
vn 0.317368 -0.318746 0.893128
vn 0.317368 -0.318747 0.893128
vn 0.696714 -0.707753 -0.116942
vn 0.696714 -0.707753 -0.116942
vn 0.696714 -0.707753 -0.116942
vn 0.696714 -0.707753 -0.116942
vn 0.572327 -0.642190 0.509936
vn 0.572327 -0.642190 0.509936
vn 0.572327 -0.642190 0.509936
vn 0.572327 -0.642190 0.509936
vn -0.969929 -0.243387 0.000000
vn -0.969929 -0.243387 0.000000
vn -0.969929 -0.243387 0.000000
vn -0.969929 -0.243387 0.000000
vn -0.000001 0.000000 -1.000000
vn -0.000001 0.000000 -1.000000
vn -0.000001 0.000000 -1.000000
vn -0.000001 0.000000 -1.000000
vn 0.969929 0.243389 0.000000
vn 0.969929 0.243389 0.000000
vn 0.969929 0.243389 0.000000
vn 0.969929 0.243389 0.000000
vn 0.000001 0.000000 1.000000
vn 0.000001 0.000000 1.000000
vn 0.000001 0.000000 1.000000
vn 0.000001 0.000000 1.000000
vn 0.000001 0.000000 1.000000
s off
g smalldragon_rightwing:polySurface57polySurface55
usemtl initialShadingGroup
f 24/1/1 25/2/2 26/3/3 27/4/4
f 58/5/5 59/6/6 60/7/7 61/8/8
f 24/1/9 27/4/10 58/5/11 61/8/12
f 31/9/13 62/10/14 65/11/15 28/12/16
f 62/10/17 63/13/18 64/14/19 65/11/20
f 28/12/21 29/15/22 30/16/23 31/9/24
f 32/17/25 33/18/26 34/19/27 35/20/28
f 36/21/29 37/22/30 38/23/31 39/24/32
f 66/25/33 67/26/34 68/27/35 69/28/36
f 70/29/37 71/30/38 72/31/39 73/32/40
f 40/33/41 41/34/42 42/35/43 43/36/44
f 44/37/45 45/38/46 46/39/47 47/40/48
f 74/41/49 75/42/50 76/43/51 77/44/52
f 78/45/53 79/46/54 80/47/55 81/48/56
f 43/36/57 42/35/58 48/49/59 49/50/60
f 81/48/61 80/47/62 82/51/63 83/52/64
f 84/53/65 85/54/66 74/41/67 77/44/68
f 2/55/69 13/56/70 22/57/71 23/58/72
f 50/59/73 51/60/74 33/18/75 32/17/76
f 86/61/77 87/62/78 71/30/79 70/29/80
f 67/26/81 88/63/82 89/64/83 68/27/84
f 6/65/85 14/66/86 15/67/87 8/68/88
f 53/69/89 52/70/90 41/34/91 40/33/92
f 91/71/93 90/72/94 79/46/95 78/45/96
f 75/42/97 92/73/98 93/74/99 76/43/100
f 4/75/101 11/76/102 12/77/103 10/78/104
f 27/4/105 28/12/106 65/11/107 58/5/108
f 27/4/109 26/3/110 29/15/111 28/12/112
f 12/77/113 11/76/114 3/79/115 9/80/116
f 46/39/117 45/38/118 40/33/119 43/36/120
f 21/81/121 22/57/122 13/56/123 1/82/124
f 15/67/125 14/66/126 5/83/127 7/84/128
f 38/23/129 37/22/130 32/17/131 35/20/132
f 71/30/133 67/26/134 66/25/135 72/31/136
f 87/62/137 88/63/138 67/26/139 71/30/140
f 80/47/141 74/41/142 85/54/143 82/51/144
f 79/46/145 75/42/146 74/41/147 80/47/148
f 90/72/149 92/73/150 75/42/151 79/46/152
f 65/11/153 64/14/154 59/6/155 58/5/156
f 26/3/157 25/2/158 52/70/159 53/69/160
f 17/85/161 16/86/162 3/79/163 11/76/164
f 18/87/165 17/85/166 11/76/167 4/75/168
f 64/14/169 63/13/170 93/74/171 92/73/172
f 59/6/173 64/14/174 92/73/175 90/72/176
f 60/7/177 59/6/178 90/72/179 91/71/180
f 44/37/181 47/40/182 54/88/183 55/89/184
f 20/90/185 2/55/186 77/44/187 95/91/188
f 77/44/189 76/43/190 94/92/191 95/91/192
f 31/9/193 30/16/194 56/93/195 57/94/196
f 63/13/197 62/10/198 96/95/199 97/96/200
f 49/50/201 48/49/202 51/60/203 50/59/204
f 14/66/205 22/57/206 21/81/207 5/83/208
f 23/58/209 22/57/210 14/66/211 6/65/212
f 88/63/213 85/54/214 84/53/215 89/64/216
f 82/51/217 85/54/218 88/63/219 87/62/220
f 83/52/221 82/51/222 87/62/223 86/61/224
f 60/7/225 25/2/226 24/1/227 61/8/228
f 17/85/229 18/87/230 30/16/231 29/15/232
f 34/19/233 33/18/234 70/29/235 73/32/236
f 8/68/237 15/67/238 37/22/239 36/21/240
f 39/24/241 38/23/242 66/25/243 69/28/244
f 42/35/245 41/34/246 78/45/247 81/48/248
f 10/78/249 12/77/250 45/38/251 44/37/252
f 13/56/253 2/55/254 47/40/255 46/39/256
f 83/52/257 48/49/258 42/35/259 81/48/260
f 21/81/261 1/82/262 43/36/263 49/50/264
f 33/18/265 51/60/266 86/61/267 70/29/268
f 7/84/269 5/83/270 50/59/271 32/17/272
f 41/34/273 52/70/274 91/71/275 78/45/276
f 9/80/277 3/79/278 53/69/279 40/33/280
f 16/86/281 17/85/282 29/15/283 26/3/284
f 12/77/285 9/80/286 40/33/287 45/38/288
f 1/82/289 13/56/290 46/39/291 43/36/292
f 15/67/293 7/84/294 32/17/295 37/22/296
f 91/71/297 52/70/298 25/2/299 60/7/300
f 3/79/301 16/86/302 26/3/303 53/69/304
f 2/55/305 20/90/306 54/88/307 47/40/308
f 20/90/309 19/97/310 55/89/311 54/88/312
f 19/97/313 10/78/314 44/37/315 55/89/316
f 56/93/317 30/16/318 18/87/319 63/13/320 97/96/321
f 86/61/322 51/60/323 48/49/324 83/52/325
f 5/83/326 21/81/327 49/50/328 50/59/329
f 99/98/330 100/99/331 101/100/332 98/101/333
f 34/19/334 73/32/335 72/31/336 35/20/337
f 23/58/338 84/53/339 77/44/340 2/55/341
f 68/27/342 89/64/343 6/65/344 8/68/345
f 10/78/346 76/43/347 93/74/348 4/75/349
f 35/20/350 72/31/351 66/25/352 38/23/353
f 4/75/354 93/74/355 63/13/356 18/87/357
f 19/97/358 94/92/359 76/43/360 10/78/361
f 20/90/362 95/91/363 94/92/364 19/97/365
f 57/94/366 96/95/367 62/10/368 31/9/369
f 56/93/370 97/96/371 96/95/372 57/94/373
f 6/65/374 89/64/375 84/53/376 23/58/377
f 36/21/378 39/24/379 99/98/380 98/101/381
f 99/98/382 39/24/383 69/28/384 100/99/385
f 69/28/386 68/27/387 101/100/388 100/99/389
f 98/101/390 101/100/391 68/27/392 8/68/393 36/21/394
