# This file uses centimeters as units for non-parametric coordinates.

mtllib newwingleft.mtl
g default
v 0.865142 3.413108 2.203242
v 0.421940 1.646905 2.227838
v 0.865142 3.413108 3.329361
v 0.451585 1.765044 3.368178
v 0.641185 2.520617 1.070683
v 0.271040 1.045557 1.099101
v 0.492806 1.929312 0.374242
v 0.146012 0.547307 0.374242
v 0.903707 3.566790 2.598491
v 0.460503 1.800585 2.623087
v 0.631341 2.481388 3.368178
v 0.669905 2.635067 2.623087
v 0.631341 2.481388 2.227838
v 0.480442 1.880038 1.099101
v 0.372050 1.448087 0.374242
v 0.782473 3.083662 3.940227
v 0.548672 2.151940 4.011528
v 0.355126 1.380641 4.005962
v 0.311956 1.208607 2.518510
v 0.313939 1.216508 2.332418
v 0.795345 3.134957 1.661668
v 0.575210 2.257698 1.681074
v 0.365808 1.423215 1.681074
v 0.868308 2.817260 4.257819
v 1.014689 3.400602 3.871125
v 0.907251 2.972457 3.940227
v 0.757938 2.377428 4.386285
v 0.618337 1.821105 4.440428
v 0.673451 2.040736 4.011528
v 0.479904 1.269437 4.005962
v 0.458203 1.182960 4.329691
v 0.617585 1.818109 0.374242
v 0.693058 2.118874 0.374242
v 0.547508 1.538846 -0.092158
v 0.446477 1.136229 -0.253629
v 0.270792 0.436102 0.374242
v 0.496829 1.336884 0.374242
v 0.346121 0.736300 -0.374241
v 0.270792 0.436102 -0.374241
v 1.028486 3.455584 2.598491
v 1.115736 3.803285 2.705624
v 1.077173 3.649604 2.081889
v 0.989922 3.301904 2.203242
v 0.585283 1.689381 2.623087
v 0.794684 2.523863 2.623087
v 0.756120 2.370183 2.227838
v 0.546719 1.535699 2.227838
v 1.007374 3.371453 1.661668
v 0.920124 3.023752 1.661668
v 0.765964 2.409411 1.070683
v 0.853214 2.757113 1.070683
v 1.077173 3.649604 3.329361
v 0.989922 3.301904 3.329361
v 0.438717 1.105304 2.332418
v 0.436735 1.097402 2.518510
v 0.418434 0.975609 4.050807
v 0.391738 0.970608 4.240120
v 0.494204 2.612468 4.386285
v 0.643519 3.207500 3.940227
v 0.750955 3.635645 3.871125
v 0.604574 3.052303 4.257819
v 0.194470 1.418000 4.329691
v 0.216171 1.504479 4.005962
v 0.409717 2.275778 4.011528
v 0.354603 2.056148 4.440428
v 0.082387 0.971340 -0.374241
v 0.233095 1.571927 0.374242
v 0.007057 0.671145 0.374242
v 0.007057 0.671145 -0.374241
v 0.429324 2.353915 0.374242
v 0.353852 2.053149 0.374242
v 0.182743 1.371268 -0.253629
v 0.283775 1.773886 -0.092158
v 0.492387 2.605226 2.227838
v 0.530950 2.758905 2.623087
v 0.321549 1.924423 2.623087
v 0.282985 1.770741 2.227838
v 0.852002 4.038328 2.705624
v 0.764752 3.690627 2.598491
v 0.726188 3.536948 2.203242
v 0.813439 3.884648 2.081889
v 0.656390 3.258795 1.661668
v 0.743641 3.606496 1.661668
v 0.226854 1.547053 1.681074
v 0.436255 2.381536 1.681074
v 0.589481 2.992156 1.070683
v 0.502231 2.644454 1.070683
v 0.341487 2.003878 1.099101
v 0.132085 1.169393 1.099101
v 0.726188 3.536948 3.329361
v 0.813439 3.884648 3.329361
v 0.492387 2.605226 3.368178
v 0.312630 1.888884 3.368178
v 0.173001 1.332443 2.518510
v 0.174984 1.340346 2.332418
v 0.134027 1.225996 4.229856
v 0.160723 1.230997 4.040544
v 0.131868 -0.117522 0.374242
v 0.131868 -0.117522 -0.374241
v -0.131866 0.117521 -0.374241
v -0.131866 0.117521 0.374242
vt 0.375000 0.250000
vt 0.375000 0.300000
vt 0.400000 0.300000
vt 0.400000 0.250000
vt 0.375000 0.950000
vt 0.375000 1.000000
vt 0.400000 1.000000
vt 0.400000 0.950000
vt 0.625000 0.950000
vt 0.625000 1.000000
vt 0.625000 0.250000
vt 0.625000 0.300000
vt 0.375000 0.750000
vt 0.375000 0.870000
vt 0.400000 0.870000
vt 0.400000 0.750000
vt 0.625000 0.750000
vt 0.625000 0.870000
vt 0.625000 0.380000
vt 0.625000 0.500000
vt 0.375000 0.380000
vt 0.375000 0.500000
vt 0.400000 0.500000
vt 0.400000 0.380000
vt 0.587500 0.300000
vt 0.587500 0.250000
vt 0.587500 0.500000
vt 0.587500 0.380000
vt 0.587500 0.750000
vt 0.587500 0.870000
vt 0.587500 1.000000
vt 0.587500 0.950000
vt 0.468750 0.300000
vt 0.500000 0.300000
vt 0.500000 0.250000
vt 0.468750 0.250000
vt 0.468750 0.500000
vt 0.500000 0.500000
vt 0.500000 0.380000
vt 0.468750 0.380000
vt 0.500000 0.500000
vt 0.468750 0.500000
vt 0.468750 0.750000
vt 0.500000 0.750000
vt 0.500000 0.870000
vt 0.500000 0.750000
vt 0.468750 0.750000
vt 0.468750 0.870000
vt 0.468750 1.000000
vt 0.500000 1.000000
vt 0.500000 0.950000
vt 0.468750 0.950000
vt 0.531250 0.300000
vt 0.531250 0.250000
vt 0.531250 1.000000
vt 0.531250 0.950000
vt 0.531250 0.750000
vt 0.531250 0.870000
vt 0.531250 0.500000
vt 0.500000 0.500000
vt 0.531250 0.380000
vt 0.500000 0.380000
vt 0.562500 0.300000
vt 0.562500 0.250000
vt 0.562500 1.000000
vt 0.562500 0.950000
vt 0.562500 0.750000
vt 0.562500 0.870000
vt 0.587500 0.500000
vt 0.562500 0.500000
vt 0.587500 0.380000
vt 0.562500 0.380000
vt 0.437500 0.300000
vt 0.437500 0.250000
vt 0.437500 1.000000
vt 0.437500 0.950000
vt 0.437500 0.750000
vt 0.437500 0.870000
vt 0.468750 0.500000
vt 0.437500 0.500000
vt 0.468750 0.380000
vt 0.437500 0.380000
vt 0.468750 0.300000
vt 0.437500 0.300000
vt 0.531250 0.300000
vt 0.500000 0.300000
vt 0.587500 0.300000
vt 0.562500 0.300000
vt 0.400000 0.380000
vt 0.400000 0.300000
vt 0.400000 0.500000
vt 0.468750 0.500000
vt 0.500000 0.500000
vt 0.375000 0.500000
vt 0.400000 0.500000
vt 0.400000 0.750000
vt 0.375000 0.750000
vt 0.625000 0.500000
vt 0.587500 0.500000
vt 0.587500 0.750000
vt 0.625000 0.750000
vn 0.969928 -0.243394 -0.000005
vn 0.969927 -0.243394 -0.000005
vn 0.969928 -0.243394 -0.000005
vn 0.969928 -0.243394 -0.000005
vn -0.969928 0.243391 -0.000005
vn -0.969928 0.243391 -0.000005
vn -0.969928 0.243391 -0.000005
vn -0.969928 0.243391 -0.000005
vn 0.267457 0.300106 -0.915643
vn 0.267457 0.300106 -0.915643
vn 0.267457 0.300106 -0.915643
vn 0.267457 0.300106 -0.915643
vn -0.969929 0.243390 -0.000002
vn -0.969928 0.243390 -0.000002
vn -0.969929 0.243390 -0.000002
vn -0.969928 0.243390 -0.000002
vn 0.000000 0.000000 -1.000000
vn 0.000000 0.000000 -1.000000
vn 0.000000 0.000000 -1.000000
vn 0.000000 0.000000 -1.000000
vn 0.969928 -0.243391 0.000001
vn 0.969928 -0.243391 0.000001
vn 0.969928 -0.243391 0.000001
vn 0.969928 -0.243391 0.000001
vn 0.969929 -0.243390 0.000001
vn 0.969928 -0.243390 0.000001
vn 0.969928 -0.243390 0.000001
vn 0.969928 -0.243390 0.000001
vn 0.969929 -0.243387 -0.000001
vn 0.969929 -0.243387 -0.000001
vn 0.969929 -0.243387 -0.000001
vn 0.969929 -0.243387 -0.000001
vn -0.969928 0.243391 0.000000
vn -0.969928 0.243391 0.000000
vn -0.969928 0.243391 0.000000
vn -0.969928 0.243391 0.000000
vn -0.969928 0.243393 0.000000
vn -0.969928 0.243393 0.000000
vn -0.969928 0.243393 0.000000
vn -0.969928 0.243393 0.000000
vn 0.969929 -0.243389 0.000000
vn 0.969929 -0.243389 0.000000
vn 0.969929 -0.243389 0.000000
vn 0.969929 -0.243389 0.000000
vn 0.969929 -0.243389 -0.000002
vn 0.969929 -0.243389 -0.000002
vn 0.969929 -0.243389 -0.000002
vn 0.969929 -0.243389 -0.000002
vn -0.664826 -0.745992 -0.038760
vn -0.664826 -0.745992 -0.038760
vn -0.664826 -0.745992 -0.038760
vn -0.664826 -0.745992 -0.038760
vn -0.969929 0.243389 -0.000000
vn -0.969929 0.243389 -0.000000
vn -0.969929 0.243389 -0.000000
vn -0.969929 0.243389 -0.000000
vn -0.969928 0.243392 0.000001
vn -0.969928 0.243392 0.000001
vn -0.969928 0.243392 0.000001
vn -0.969928 0.243392 0.000001
vn 0.969929 -0.243390 -0.000000
vn 0.969929 -0.243390 -0.000000
vn 0.969929 -0.243390 -0.000000
vn 0.969929 -0.243390 -0.000000
vn -0.969928 0.243390 -0.000002
vn -0.969928 0.243390 -0.000002
vn -0.969929 0.243390 -0.000002
vn -0.969928 0.243390 -0.000002
vn -0.969929 0.243390 -0.000001
vn -0.969929 0.243390 -0.000001
vn -0.969929 0.243390 -0.000001
vn -0.969929 0.243390 -0.000001
vn -0.623229 -0.699307 0.350079
vn -0.623229 -0.699307 0.350079
vn -0.623229 -0.699307 0.350079
vn -0.623229 -0.699307 0.350079
vn 0.969928 -0.243391 0.000000
vn 0.969928 -0.243391 0.000000
vn 0.969928 -0.243391 0.000000
vn 0.969928 -0.243391 0.000000
vn 0.969929 -0.243389 0.000001
vn 0.969929 -0.243389 0.000001
vn 0.969929 -0.243389 0.000001
vn 0.969929 -0.243389 0.000001
vn -0.969928 0.243391 0.000000
vn -0.969928 0.243391 0.000000
vn -0.969928 0.243391 0.000000
vn -0.969928 0.243391 0.000000
vn -0.969929 0.243390 -0.000000
vn -0.969929 0.243390 -0.000000
vn -0.969929 0.243390 -0.000000
vn -0.969929 0.243390 -0.000000
vn -0.563455 -0.632247 0.531773
vn -0.563455 -0.632247 0.531773
vn -0.563455 -0.632247 0.531773
vn -0.563455 -0.632247 0.531773
vn 0.969928 -0.243390 0.000001
vn 0.969928 -0.243390 0.000001
vn 0.969928 -0.243390 0.000001
vn 0.969928 -0.243390 0.000001
vn 0.969928 -0.243391 0.000000
vn 0.969928 -0.243391 0.000000
vn 0.969928 -0.243391 0.000000
vn 0.969928 -0.243391 0.000000
vn -0.969929 0.243389 -0.000000
vn -0.969929 0.243389 -0.000000
vn -0.969929 0.243389 -0.000000
vn -0.969929 0.243389 -0.000000
vn -0.969928 0.243390 -0.000001
vn -0.969928 0.243390 -0.000001
vn -0.969928 0.243390 -0.000001
vn -0.969928 0.243390 -0.000001
vn -0.664704 -0.745838 -0.043533
vn -0.664704 -0.745838 -0.043533
vn -0.664704 -0.745838 -0.043533
vn -0.664703 -0.745838 -0.043533
vn 0.969928 -0.243391 -0.000000
vn 0.969928 -0.243391 -0.000000
vn 0.969928 -0.243391 -0.000000
vn 0.969928 -0.243391 -0.000000
vn 0.969929 -0.243389 0.000001
vn 0.969929 -0.243389 0.000001
vn 0.969929 -0.243389 0.000001
vn 0.969929 -0.243389 0.000001
vn 0.969929 -0.243388 0.000000
vn 0.969929 -0.243388 0.000000
vn 0.969929 -0.243388 0.000000
vn 0.969929 -0.243388 0.000000
vn 0.969929 -0.243390 -0.000002
vn 0.969929 -0.243390 -0.000002
vn 0.969929 -0.243390 -0.000002
vn 0.969929 -0.243390 -0.000002
vn 0.969929 -0.243389 0.000001
vn 0.969929 -0.243389 0.000001
vn 0.969929 -0.243389 0.000001
vn 0.969929 -0.243389 0.000001
vn 0.969929 -0.243388 -0.000000
vn 0.969929 -0.243388 -0.000000
vn 0.969929 -0.243388 -0.000000
vn 0.969929 -0.243388 -0.000000
vn 0.969928 -0.243391 -0.000002
vn 0.969928 -0.243391 -0.000002
vn 0.969928 -0.243391 -0.000002
vn 0.969928 -0.243391 -0.000002
vn 0.208577 0.234041 -0.949590
vn 0.208577 0.234041 -0.949590
vn 0.208577 0.234041 -0.949590
vn 0.208577 0.234041 -0.949590
vn -0.969929 0.243389 -0.000001
vn -0.969929 0.243389 -0.000001
vn -0.969929 0.243389 -0.000001
vn -0.969929 0.243389 -0.000001
vn -0.969928 0.243391 -0.000002
vn -0.969928 0.243391 -0.000002
vn -0.969928 0.243391 -0.000002
vn -0.969928 0.243391 -0.000002
vn -0.969929 0.243389 -0.000000
vn -0.969929 0.243389 -0.000000
vn -0.969929 0.243389 -0.000000
vn -0.969929 0.243389 -0.000000
vn -0.969929 0.243389 0.000000
vn -0.969929 0.243389 0.000000
vn -0.969929 0.243389 0.000000
vn -0.969929 0.243389 0.000000
vn -0.969929 0.243390 -0.000000
vn -0.969929 0.243390 -0.000000
vn -0.969929 0.243390 -0.000000
vn -0.969929 0.243390 -0.000000
vn -0.969929 0.243388 -0.000002
vn -0.969929 0.243388 -0.000002
vn -0.969929 0.243388 -0.000002
vn -0.969929 0.243388 -0.000002
vn 0.969928 -0.243392 -0.000001
vn 0.969928 -0.243392 -0.000001
vn 0.969928 -0.243392 -0.000001
vn 0.969928 -0.243392 -0.000001
vn 0.969929 -0.243389 -0.000000
vn 0.969929 -0.243389 -0.000000
vn 0.969929 -0.243389 -0.000000
vn 0.969929 -0.243389 -0.000000
vn 0.969929 -0.243389 -0.000002
vn 0.969929 -0.243389 -0.000002
vn 0.969929 -0.243389 -0.000002
vn 0.969929 -0.243389 -0.000002
vn -0.582831 -0.653976 -0.482310
vn -0.582831 -0.653976 -0.482310
vn -0.582831 -0.653976 -0.482310
vn -0.582831 -0.653976 -0.482310
vn -0.969928 0.243391 0.000002
vn -0.969928 0.243391 0.000002
vn -0.969928 0.243391 0.000002
vn -0.969928 0.243391 0.000002
vn -0.969929 0.243389 0.000001
vn -0.969929 0.243389 0.000001
vn -0.969929 0.243389 0.000001
vn -0.969929 0.243389 0.000001
vn -0.969929 0.243390 0.000001
vn -0.969928 0.243390 0.000001
vn -0.969928 0.243390 0.000001
vn -0.969928 0.243390 0.000001
vn -0.126325 -0.141745 0.981810
vn -0.126325 -0.141745 0.981810
vn -0.126325 -0.141745 0.981810
vn -0.126325 -0.141745 0.981810
vn 0.969928 -0.243390 -0.000003
vn 0.969929 -0.243390 -0.000003
vn 0.969929 -0.243390 -0.000003
vn 0.969929 -0.243390 -0.000003
vn -0.969929 0.243390 0.000002
vn -0.969929 0.243390 0.000002
vn -0.969929 0.243390 0.000002
vn -0.969929 0.243390 0.000002
vn 0.967452 -0.248666 0.046924
vn 0.967452 -0.248666 0.046924
vn 0.967452 -0.248666 0.046924
vn 0.967452 -0.248666 0.046924
vn -0.967731 0.247537 -0.047150
vn -0.967730 0.247537 -0.047150
vn -0.967730 0.247537 -0.047150
vn -0.967730 0.247537 -0.047150
vn 0.969929 -0.243387 -0.000001
vn 0.969929 -0.243387 -0.000001
vn 0.969929 -0.243387 -0.000001
vn 0.969929 -0.243387 -0.000001
vn 0.969929 -0.243388 0.000000
vn 0.969929 -0.243388 0.000000
vn 0.969929 -0.243388 0.000000
vn 0.969929 -0.243388 0.000000
vn 0.969929 -0.243390 0.000001
vn 0.969928 -0.243390 0.000001
vn 0.969928 -0.243390 0.000001
vn 0.969929 -0.243390 0.000001
vn -0.572326 -0.642192 0.509934
vn -0.572326 -0.642192 0.509934
vn -0.572326 -0.642192 0.509934
vn -0.572326 -0.642192 0.509934
vn -0.969929 0.243389 0.000001
vn -0.969929 0.243389 0.000001
vn -0.969929 0.243389 0.000001
vn -0.969929 0.243389 0.000001
vn -0.969929 0.243390 0.000001
vn -0.969929 0.243390 0.000001
vn -0.969929 0.243390 0.000001
vn -0.969929 0.243390 0.000001
vn -0.969929 0.243390 -0.000000
vn -0.969929 0.243390 -0.000000
vn -0.969929 0.243390 -0.000000
vn -0.969929 0.243390 -0.000000
vn 0.202623 0.227360 0.952497
vn 0.202623 0.227360 0.952497
vn 0.202623 0.227360 0.952497
vn 0.202623 0.227360 0.952497
vn 0.005257 0.005897 -0.999969
vn 0.005257 0.005897 -0.999969
vn 0.005257 0.005897 -0.999969
vn 0.005257 0.005897 -0.999969
vn -0.124166 -0.139323 0.982432
vn -0.124166 -0.139323 0.982432
vn -0.124166 -0.139323 0.982432
vn -0.124166 -0.139323 0.982432
vn -0.000003 0.000000 1.000000
vn -0.000003 0.000000 1.000000
vn -0.000003 0.000000 1.000000
vn -0.000003 0.000000 1.000000
vn -0.665331 -0.746549 0.000000
vn -0.665331 -0.746549 0.000000
vn -0.665331 -0.746549 0.000000
vn -0.665331 -0.746549 0.000000
vn 0.000000 0.000000 1.000000
vn 0.000000 0.000000 1.000000
vn 0.000000 0.000000 1.000000
vn 0.000000 0.000000 1.000000
vn -0.000002 0.000000 -1.000000
vn -0.000002 0.000000 -1.000000
vn -0.000002 0.000000 -1.000000
vn -0.000002 0.000000 -1.000000
vn -0.602334 -0.675857 0.424748
vn -0.602334 -0.675857 0.424748
vn -0.602334 -0.675857 0.424748
vn -0.602334 -0.675857 0.424748
vn -0.525737 -0.589912 0.612866
vn -0.525737 -0.589912 0.612866
vn -0.525737 -0.589912 0.612866
vn -0.525737 -0.589912 0.612866
vn -0.653386 -0.733146 -0.188636
vn -0.653386 -0.733146 -0.188636
vn -0.653386 -0.733146 -0.188636
vn -0.653386 -0.733146 -0.188636
vn -0.055541 -0.062322 -0.996510
vn -0.055541 -0.062322 -0.996509
vn -0.055541 -0.062322 -0.996509
vn -0.055541 -0.062322 -0.996510
vn 0.070485 0.079088 0.994373
vn 0.070485 0.079088 0.994373
vn 0.070485 0.079088 0.994373
vn 0.070485 0.079088 0.994373
vn 0.019220 0.021564 0.999583
vn 0.019220 0.021564 0.999583
vn 0.019220 0.021564 0.999583
vn 0.019220 0.021564 0.999583
vn -0.019222 -0.021565 -0.999583
vn -0.019222 -0.021565 -0.999583
vn -0.019222 -0.021565 -0.999583
vn -0.019222 -0.021565 -0.999583
vn 0.000000 0.000000 1.000000
vn 0.000000 0.000000 1.000000
vn 0.000000 0.000000 1.000000
vn 0.000000 0.000000 1.000000
vn -0.596831 -0.669688 -0.441940
vn -0.596831 -0.669688 -0.441940
vn -0.596831 -0.669688 -0.441940
vn -0.596831 -0.669688 -0.441940
vn -0.171030 -0.191904 -0.966396
vn -0.171030 -0.191904 -0.966396
vn -0.171030 -0.191904 -0.966396
vn -0.171030 -0.191904 -0.966396
vn -0.664836 -0.745983 -0.038759
vn -0.664836 -0.745983 -0.038759
vn -0.664836 -0.745983 -0.038759
vn -0.664836 -0.745983 -0.038759
vn -0.126322 -0.141744 0.981810
vn -0.126322 -0.141744 0.981810
vn -0.126322 -0.141744 0.981810
vn -0.126322 -0.141744 0.981810
vn -0.696713 -0.707754 -0.116945
vn -0.696713 -0.707753 -0.116945
vn -0.696713 -0.707754 -0.116945
vn -0.696713 -0.707753 -0.116945
vn -0.317367 -0.318747 0.893128
vn -0.317367 -0.318747 0.893128
vn -0.317367 -0.318747 0.893128
vn -0.317367 -0.318747 0.893128
vn -0.482463 -0.541352 0.688598
vn -0.482463 -0.541352 0.688598
vn -0.482463 -0.541352 0.688598
vn -0.482463 -0.541352 0.688598
vn 0.390762 0.438460 0.809356
vn 0.390762 0.438460 0.809356
vn 0.390762 0.438460 0.809356
vn 0.390762 0.438460 0.809356
vn 0.439602 0.493265 -0.750626
vn 0.439602 0.493265 -0.750626
vn 0.439602 0.493265 -0.750626
vn 0.439602 0.493265 -0.750626
vn 0.649095 0.728327 -0.219581
vn 0.649095 0.728327 -0.219581
vn 0.649095 0.728327 -0.219581
vn 0.649095 0.728327 -0.219581
vn 0.569344 0.638840 -0.517426
vn 0.569344 0.638840 -0.517426
vn 0.569344 0.638840 -0.517426
vn 0.569344 0.638841 -0.517426
vn 0.510161 0.572434 -0.641915
vn 0.510161 0.572434 -0.641915
vn 0.510161 0.572434 -0.641915
vn 0.510161 0.572434 -0.641915
vn 0.649094 0.728327 0.219580
vn 0.649094 0.728327 0.219580
vn 0.649094 0.728327 0.219580
vn 0.649094 0.728327 0.219580
vn 0.613456 0.688337 0.387123
vn 0.613456 0.688337 0.387122
vn 0.613456 0.688337 0.387122
vn 0.613456 0.688337 0.387122
vn -0.171026 -0.191903 -0.966397
vn -0.171026 -0.191903 -0.966397
vn -0.171026 -0.191903 -0.966397
vn -0.171026 -0.191903 -0.966397
vn -0.092736 -0.119287 -0.988519
vn -0.092736 -0.119287 -0.988519
vn -0.092736 -0.119287 -0.988519
vn -0.092736 -0.119287 -0.988519
vn -0.092736 -0.119287 -0.988519
vn 0.482461 0.541353 -0.688599
vn 0.482461 0.541353 -0.688599
vn 0.482461 0.541353 -0.688598
vn 0.482461 0.541353 -0.688599
vn -0.000001 0.000000 1.000000
vn -0.000001 0.000000 1.000000
vn -0.000001 0.000000 1.000000
vn -0.000001 0.000000 1.000000
vn -0.000001 0.000000 1.000000
vn 0.969929 -0.243389 0.000000
vn 0.969929 -0.243389 0.000000
vn 0.969929 -0.243389 0.000000
vn 0.969929 -0.243389 0.000000
vn 0.000000 0.000000 -1.000000
vn 0.000000 0.000000 -1.000000
vn 0.000000 0.000000 -1.000000
vn 0.000000 0.000000 -1.000000
vn -0.969929 0.243389 0.000000
vn -0.969929 0.243389 0.000000
vn -0.969929 0.243389 0.000000
vn -0.969929 0.243389 0.000000
s off
g smalldragon_leftwing:polySurface58polySurface55
usemtl initialShadingGroup
f 24/1/1 27/2/2 26/3/3 25/4/4
f 58/5/5 61/6/6 60/7/7 59/8/8
f 72/9/9 73/10/10 34/11/11 35/12/12
f 62/13/13 65/14/14 64/15/15 63/16/16
f 69/17/17 66/18/18 38/19/19 39/20/20
f 28/21/21 31/22/22 30/23/23 29/24/24
f 32/25/25 35/12/26 34/11/27 33/26/28
f 36/27/29 39/20/30 38/19/31 37/28/32
f 66/18/33 69/17/34 68/29/35 67/30/36
f 70/31/37 73/10/38 72/9/39 71/32/40
f 40/33/41 43/34/42 42/35/43 41/36/44
f 44/37/45 47/38/46 46/39/47 45/40/48
f 20/41/49 19/42/50 94/43/51 95/44/52
f 74/45/53 77/46/54 76/47/55 75/48/56
f 78/49/57 81/50/58 80/51/59 79/52/60
f 43/34/61 49/53/62 48/54/63 42/35/64
f 81/50/65 83/55/66 82/56/67 80/51/68
f 84/57/69 77/46/70 74/45/71 85/58/72
f 23/59/73 2/60/74 77/46/75 84/57/76
f 2/60/77 23/59/78 22/61/79 13/62/80
f 50/63/81 32/25/82 33/26/83 51/64/84
f 86/65/85 70/31/86 71/32/87 87/66/88
f 67/30/89 68/29/90 89/67/91 88/68/92
f 8/69/93 6/70/94 89/67/95 68/29/96
f 6/70/97 8/69/98 15/71/99 14/72/100
f 53/73/101 40/33/102 41/36/103 52/74/104
f 91/75/105 78/49/106 79/52/107 90/76/108
f 75/48/109 76/47/110 93/77/111 92/78/112
f 10/79/113 4/80/114 93/77/115 76/47/116
f 4/80/117 10/79/118 12/81/119 11/82/120
f 27/2/121 28/21/122 29/24/123 26/3/124
f 12/81/125 9/83/126 3/84/127 11/82/128
f 46/39/129 43/34/130 40/33/131 45/40/132
f 21/85/133 1/86/134 13/62/135 22/61/136
f 15/71/137 7/87/138 5/88/139 14/72/140
f 38/19/141 35/12/142 32/25/143 37/28/144
f 66/18/145 72/9/146 35/12/147 38/19/148
f 71/32/149 72/9/150 66/18/151 67/30/152
f 87/66/153 71/32/154 67/30/155 88/68/156
f 80/51/157 82/56/158 85/58/159 74/45/160
f 79/52/161 80/51/162 74/45/163 75/48/164
f 90/76/165 79/52/166 75/48/167 92/78/168
f 65/14/169 58/5/170 59/8/171 64/15/172
f 26/3/173 53/73/174 52/74/175 25/4/176
f 17/89/177 11/82/178 3/84/179 16/90/180
f 18/91/181 4/80/182 11/82/183 17/89/184
f 4/80/185 18/91/186 63/16/187 93/77/188
f 64/15/189 92/78/190 93/77/191 63/16/192
f 59/8/193 90/76/194 92/78/195 64/15/196
f 60/7/197 91/75/198 90/76/199 59/8/200
f 19/42/201 10/79/202 76/47/203 94/43/204
f 44/37/205 55/92/206 54/93/207 47/38/208
f 77/46/209 95/44/210 94/43/211 76/47/212
f 31/22/213 57/94/214 56/95/215 30/23/216
f 63/16/217 97/96/218 96/97/219 62/13/220
f 49/53/221 50/63/222 51/64/223 48/54/224
f 14/72/225 5/88/226 21/85/227 22/61/228
f 23/59/229 6/70/230 14/72/231 22/61/232
f 6/70/233 23/59/234 84/57/235 89/67/236
f 88/68/237 89/67/238 84/57/239 85/58/240
f 82/56/241 87/66/242 88/68/243 85/58/244
f 83/55/245 86/65/246 87/66/247 82/56/248
f 58/5/249 27/2/250 24/1/251 61/6/252
f 17/89/253 29/24/254 30/23/255 18/91/256
f 31/22/257 28/21/258 65/14/259 62/13/260
f 8/69/261 36/27/262 37/28/263 15/71/264
f 99/98/265 98/99/266 101/100/267 100/101/268
f 10/79/269 44/37/270 45/40/271 12/81/272
f 13/62/273 46/39/274 47/38/275 2/60/276
f 21/85/277 49/53/278 43/34/279 1/86/280
f 7/87/281 32/25/282 50/63/283 5/88/284
f 9/83/285 40/33/286 53/73/287 3/84/288
f 16/90/289 26/3/290 29/24/291 17/89/292
f 65/14/293 28/21/294 27/2/295 58/5/296
f 12/81/297 45/40/298 40/33/299 9/83/300
f 1/86/301 43/34/302 46/39/303 13/62/304
f 15/71/305 37/28/306 32/25/307 7/87/308
f 3/84/309 53/73/310 26/3/311 16/90/312
f 2/60/313 47/38/314 54/93/315 20/41/316
f 20/41/317 54/93/318 55/92/319 19/42/320
f 19/42/321 55/92/322 44/37/323 10/79/324
f 97/96/325 56/95/326 57/94/327 96/97/328
f 57/94/329 31/22/330 62/13/331 96/97/332
f 5/88/333 50/63/334 49/53/335 21/85/336
f 60/7/337 61/6/338 24/1/339 25/4/340
f 73/10/341 70/31/342 33/26/343 34/11/344
f 81/50/345 78/49/346 41/36/347 42/35/348
f 83/55/349 81/50/350 42/35/351 48/54/352
f 70/31/353 86/65/354 51/64/355 33/26/356
f 78/49/357 91/75/358 52/74/359 41/36/360
f 91/75/361 60/7/362 25/4/363 52/74/364
f 20/41/365 95/44/366 77/46/367 2/60/368
f 97/96/369 63/16/370 18/91/371 30/23/372 56/95/373
f 86/65/374 83/55/375 48/54/376 51/64/377
f 101/100/378 98/99/379 36/27/380 8/69/381 68/29/382
f 36/27/383 98/99/384 99/98/385 39/20/386
f 99/98/387 100/101/388 69/17/389 39/20/390
f 69/17/391 100/101/392 101/100/393 68/29/394
